<svg width="61" height="41" viewBox="0 0 61 41" fill="none" xmlns="http://www.w3.org/2000/svg">
<path fill-rule="evenodd" clip-rule="evenodd" d="M19.1365 0.696014C6.73236 8.8483 0.532227 17.8387 0.532227 27.6723C0.532227 31.5728 1.66161 34.7156 3.92039 37.1085C6.17916 39.5002 9.21344 40.696 13.0232 40.696C16.8317 40.696 19.7561 39.6995 21.7951 37.7065C23.8316 35.7121 24.8511 33.1212 24.8511 29.9323C24.8511 27.8052 24.2302 25.4595 22.9909 22.889C21.7491 20.3198 21.1295 18.0176 21.1295 15.9785C21.1295 13.4987 22.1707 10.7953 24.2532 7.87223C26.3331 4.94783 28.5267 2.55618 30.8315 0.696014H19.1365ZM49.0371 0.696014C36.633 8.8483 30.4329 17.8387 30.4329 27.6723C30.4329 31.5728 31.5623 34.7156 33.8211 37.1085C36.0798 39.5002 39.1141 40.696 42.9239 40.696C46.7324 40.696 49.6555 39.6995 51.6958 37.7065C53.7323 35.7121 54.7518 33.1212 54.7518 29.9323C54.7518 27.8052 54.1309 25.4595 52.8916 22.889C51.6498 20.3198 51.0302 18.0176 51.0302 15.9785C51.0302 13.4987 52.0714 10.7953 54.1539 7.87223C56.2338 4.94783 58.4274 2.55618 60.7322 0.696014H49.0371Z" fill="#66B5D8"/>
</svg>
