<svg xmlns="http://www.w3.org/2000/svg" xmlns:xlink="http://www.w3.org/1999/xlink" viewBox="0 0 63.18 63.25"><defs><style>.cls-1{fill:none;}.cls-2{clip-path:url(#clip-path);}.cls-3{fill:#fff;fill-rule:evenodd;}</style><clipPath id="clip-path"><rect class="cls-1" width="63.18" height="63.25"/></clipPath></defs><title>Ativo 1</title><g id="Camada_2" data-name="Camada 2"><g id="Camada_1-2" data-name="Camada 1"><g class="cls-2"><path class="cls-3" d="M43.11,59.14a10.18,10.18,0,0,0,3-1.91,8,8,0,0,0,2.11-3.44,9.2,9.2,0,0,0,3.43-2.2,8.18,8.18,0,0,0,2.11-3.34,9.36,9.36,0,0,0,3.44-2.2,11.87,11.87,0,0,0,2-2.87l4,20.07Z"/><path class="cls-3" d="M54.39,34.87,22.27,2.75l-.67-.67a6.76,6.76,0,0,0-9.75,0L2,11.83a6.92,6.92,0,0,0,0,9.75l.67.67L34.89,54.36a5.88,5.88,0,0,0,8.31.1,5.46,5.46,0,0,0,1.73-3.92,5.68,5.68,0,0,0,3.82-1.72A5.26,5.26,0,0,0,50.47,45a6.16,6.16,0,0,0,3.92-1.72,5.91,5.91,0,0,0,0-8.41m-14,16.72a2,2,0,0,1-2.77,0L11.09,25.12l2.77-2.78L40.43,48.82a2,2,0,0,1,0,2.77m5.64-5.54a2.09,2.09,0,0,1-2.87,0L16.63,19.48,19.5,16.7,46.07,43.28a2,2,0,0,1,0,2.77m5.54-5.64a2.08,2.08,0,0,1-2.86,0L22.27,13.84,25,11.16,51.61,37.64a2,2,0,0,1,0,2.77"/></g></g></g></svg>