<svg xmlns="http://www.w3.org/2000/svg" viewBox="0 0 106.12 35.43"><defs><style>.cls-1{fill:#00b6e6;}.cls-2{fill:#eac13a;}.cls-3{fill:#57b249;}</style></defs><title>detalhe</title><g id="Camada_2" data-name="Camada 2"><g id="Camada_1-2" data-name="Camada 1"><rect class="cls-1" x="35.3" y="17.64" width="17.73" height="17.67"/><rect class="cls-1" x="53.03" width="17.73" height="17.67"/><rect class="cls-2" x="70.72" width="35.4" height="35.4"/><path class="cls-1" d="M100.45,16.4,89.72,5.67a1.85,1.85,0,0,0-2.6,0L76.4,16.4a1.83,1.83,0,0,0,0,2.6L87.12,29.73a1.83,1.83,0,0,0,2.6,0c.51-.56,3.08-3,3.53-3.53l7.2-7.2a1.83,1.83,0,0,0,0-2.6"/><rect class="cls-3" y="0.03" width="35.4" height="35.4"/><path class="cls-2" d="M24.83,24.59C32.6,17.9,26.07,4.08,15.58,6.41.73,9.92,7.52,31.87,21.65,26.6c.34.7,4.83,3.91,4.79,2.06a10.72,10.72,0,0,1-1.61-4.07"/></g></g></svg>