<svg xmlns="http://www.w3.org/2000/svg" viewBox="0 0 9.21 9.2"><defs><style>.cls-1{fill:#eac13a;}.cls-2{fill:none;stroke:#eac13a;stroke-miterlimit:10;stroke-width:0.25px;}</style></defs><title>facebook</title><g id="Camada_2" data-name="Camada 2"><g id="Camada_1-2" data-name="Camada 1"><path class="cls-1" d="M4.61.13A4.47,4.47,0,1,1,.13,4.81,4.46,4.46,0,0,1,4.61.13m0,8.42a4,4,0,1,0-3.95-4,3.95,3.95,0,0,0,4,4"/><path class="cls-2" d="M4.61.13A4.47,4.47,0,1,1,.13,4.81,4.46,4.46,0,0,1,4.61.13Zm0,8.42a4,4,0,1,0-3.95-4A3.95,3.95,0,0,0,4.62,8.55Z"/><path class="cls-1" d="M3.67,7.75V4.59H3V3.51h.44c.25,0,.25,0,.25-.23v-.7a1.1,1.1,0,0,1,.94-1.12,6.85,6.85,0,0,1,.79,0h.72s.09,0,.09.05c0,.35,0,.7,0,1.06H6.05c-.19,0-.38,0-.57,0a.33.33,0,0,0-.37.37v.53c0,.07,0,.09.09.08h1c0,.37-.09.72-.14,1.08h-1V7.75Z"/></g></g></svg>