<svg xmlns="http://www.w3.org/2000/svg" viewBox="0 0 8.92 8.92"><defs><style>.cls-1{fill:#eac13a;}</style></defs><title>instagram</title><g id="Camada_2" data-name="Camada 2"><g id="Camada_1-2" data-name="Camada 1"><path class="cls-1" d="M8.91,2.72a3.17,3.17,0,0,0-.22-1.14A2.18,2.18,0,0,0,7.39.24,3.53,3.53,0,0,0,6.15,0L4.47,0,2.78,0a3.48,3.48,0,0,0-1.2.21A2.23,2.23,0,0,0,.22,1.6,3.57,3.57,0,0,0,0,2.81C0,4,0,5.14,0,6.3a3.15,3.15,0,0,0,.2,1A2.25,2.25,0,0,0,1.31,8.58a2.92,2.92,0,0,0,1.23.32l1,0H6.15a3.32,3.32,0,0,0,1-.16,2.33,2.33,0,0,0,1.28-.94,2.66,2.66,0,0,0,.42-1.37c0-.31,0-.63,0-1,0-.93,0-1.85,0-2.77M8.13,5.6A6.86,6.86,0,0,1,8,6.8,1.54,1.54,0,0,1,6.71,8.05a8.92,8.92,0,0,1-1.37.08H3.23A6.76,6.76,0,0,1,2,8a1.42,1.42,0,0,1-1-.93,2.59,2.59,0,0,1-.17-1c0-.89,0-1.77,0-2.66A6.67,6.67,0,0,1,.91,2.12,1.51,1.51,0,0,1,2.15.89,6.11,6.11,0,0,1,3.36.8c.39,0,.78,0,1.17,0s.64,0,1,0a8,8,0,0,1,1.3.1A1.51,1.51,0,0,1,8,2.18a6.79,6.79,0,0,1,.09,1.27c0,.72,0,1.44,0,2.15"/><path class="cls-1" d="M4.45,2.17A2.3,2.3,0,1,0,6.74,4.48,2.29,2.29,0,0,0,4.45,2.17m0,3.77a1.49,1.49,0,0,1-1.5-1.48,1.51,1.51,0,0,1,3,0A1.49,1.49,0,0,1,4.44,5.94"/><path class="cls-1" d="M6.84,1.53a.56.56,0,0,0-.54.54.57.57,0,0,0,.54.54.57.57,0,0,0,.54-.54.56.56,0,0,0-.54-.54"/></g></g></svg>