<svg xmlns="http://www.w3.org/2000/svg" xmlns:xlink="http://www.w3.org/1999/xlink" viewBox="0 0 44.64 50.47"><defs><style>.cls-1{fill:none;}.cls-2{clip-path:url(#clip-path);}.cls-3{fill:#fff;}</style><clipPath id="clip-path" transform="translate(0 0)"><rect class="cls-1" width="44.64" height="50.47"/></clipPath></defs><title>Ativo 2</title><g id="Camada_2" data-name="Camada 2"><g id="Camada_1-2" data-name="Camada 1"><g class="cls-2"><path class="cls-3" d="M43.8,50.47H5.7a5.7,5.7,0,0,1,0-11.4H43.8a.85.85,0,0,1,.84.84v9.72a.84.84,0,0,1-.84.84M5.7,40.75a4,4,0,0,0,0,8H43v-8Z" transform="translate(0 0)"/><path class="cls-3" d="M8.54,50.47c-1.87,0-3.28-2.45-3.28-5.7s1.41-5.7,3.28-5.7a.84.84,0,0,1,0,1.68c-.64,0-1.59,1.6-1.59,4s1,4,1.59,4a.84.84,0,0,1,0,1.68" transform="translate(0 0)"/><path class="cls-3" d="M.84,45.61A.85.85,0,0,1,0,44.77V5.7A5.71,5.71,0,0,1,5.7,0H43.8a.85.85,0,0,1,.84.84V39.91a.84.84,0,1,1-1.68,0V1.68H5.7a4,4,0,0,0-4,4V44.77a.84.84,0,0,1-.84.84" transform="translate(0 0)"/><path class="cls-3" d="M5.7,40.75a.84.84,0,0,1-.84-.84V.84a.84.84,0,0,1,1.68,0V39.91a.84.84,0,0,1-.84.84" transform="translate(0 0)"/><path class="cls-3" d="M36.54,45.61H13.86a.84.84,0,1,1,0-1.68H36.54a.84.84,0,0,1,0,1.68" transform="translate(0 0)"/><path class="cls-3" d="M33.82,8.77H16.59a.84.84,0,1,1,0-1.68H33.82a.84.84,0,1,1,0,1.68" transform="translate(0 0)"/><path class="cls-3" d="M38.23,13.15h-26a.84.84,0,0,1,0-1.68H38.23a.84.84,0,0,1,0,1.68" transform="translate(0 0)"/><path class="cls-3" d="M38.23,17.53h-26a.84.84,0,1,1,0-1.68H38.23a.84.84,0,1,1,0,1.68" transform="translate(0 0)"/><path class="cls-3" d="M38.23,21.91h-26a.84.84,0,0,1,0-1.68H38.23a.84.84,0,0,1,0,1.68" transform="translate(0 0)"/></g></g></g></svg>