<svg xmlns="http://www.w3.org/2000/svg" xmlns:xlink="http://www.w3.org/1999/xlink" viewBox="0 0 231.03 71.6"><defs><style>.cls-1{fill:none;}.cls-2{clip-path:url(#clip-path);}.cls-3{fill:#fff;}.cls-4{fill:#f9c224;}.cls-5{fill:#f99e33;}.cls-6{fill:#00b6da;}</style><clipPath id="clip-path" transform="translate(0)"><rect class="cls-1" width="231.04" height="71.6"/></clipPath></defs><title>logo</title><g id="Camada_2" data-name="Camada 2"><g id="Camada_1-2" data-name="Camada 1"><g class="cls-2"><path class="cls-3" d="M105.31,7.44c2.18,0,3.6.85,4.28,2.55a4.52,4.52,0,0,1,1.75-1.81,5.07,5.07,0,0,1,2.7-.74,4.22,4.22,0,0,1,4.31,2.61,10.87,10.87,0,0,1,.55,4v8.53h-4.07V14.93a10.8,10.8,0,0,0-.26-2.89,1.66,1.66,0,0,0-1.68-1.21,2.3,2.3,0,0,0-2.07,1,6,6,0,0,0-.68,3.27v7.46h-4.08V14.93A10.2,10.2,0,0,0,105.8,12a1.63,1.63,0,0,0-1.65-1.21,2.36,2.36,0,0,0-2.08,1,5.87,5.87,0,0,0-.7,3.29v7.46H97.29V7.82h3.42a5.68,5.68,0,0,1,.28,2,4.23,4.23,0,0,1,1.67-1.72,5.1,5.1,0,0,1,2.65-.68" transform="translate(0)"/><path class="cls-3" d="M130.1,7.44q6,0,6,7.75a9.89,9.89,0,0,1-1.43,5.72,5.06,5.06,0,0,1-4.44,2,4.8,4.8,0,0,1-2.33-.54,3.57,3.57,0,0,1-1.46-1.28V28.3h-4.08V7.82h3.41a4.8,4.8,0,0,1,.29,1.76,4.46,4.46,0,0,1,4-2.14m-.87,3.27q-2.77,0-2.77,4.48t2.77,4.46c1.84,0,2.75-1.49,2.75-4.46s-.91-4.48-2.75-4.48" transform="translate(0)"/><path class="cls-3" d="M151.19,12.88v9.69h-3.41a4.31,4.31,0,0,1-.29-1.65,5.42,5.42,0,0,1-4.48,2,4.38,4.38,0,0,1-3.24-1.21,4.14,4.14,0,0,1-1.22-3,4.14,4.14,0,0,1,1.1-2.94,7.42,7.42,0,0,1,3.62-1.81l2.28-.58a2.63,2.63,0,0,0,1.22-.53,1.14,1.14,0,0,0,.35-.85c0-.83-.7-1.25-2.09-1.25a13.89,13.89,0,0,0-5.29,1V8.42a13.87,13.87,0,0,1,5.61-1,6.59,6.59,0,0,1,4.34,1.26c1,.84,1.5,2.23,1.5,4.18m-4.07,4.37V15.34a1.94,1.94,0,0,1-.93.46l-1.68.49a3.33,3.33,0,0,0-1.5.78,1.76,1.76,0,0,0-.41,1.19,1.53,1.53,0,0,0,.48,1.17,1.73,1.73,0,0,0,1.23.45,2.87,2.87,0,0,0,2.05-.71,2.51,2.51,0,0,0,.76-1.92" transform="translate(0)"/><path class="cls-3" d="M154.67,22.57V7.82h3.41a5,5,0,0,1,.29,1.88,4.48,4.48,0,0,1,1.46-1.55,4,4,0,0,1,2.27-.65,4.88,4.88,0,0,1,1.1.14v3.71a6.05,6.05,0,0,0-1.73-.21c-1.82,0-2.72,1-2.72,2.95v8.48Z" transform="translate(0)"/><path class="cls-3" d="M176.77,12.88v9.69h-3.41a4.13,4.13,0,0,1-.29-1.65,5.43,5.43,0,0,1-4.49,2,4.38,4.38,0,0,1-3.24-1.21,4.13,4.13,0,0,1-1.21-3,4.1,4.1,0,0,1,1.1-2.94,7.43,7.43,0,0,1,3.61-1.81l2.29-.58a2.59,2.59,0,0,0,1.21-.53,1.1,1.1,0,0,0,.35-.85c0-.83-.69-1.25-2.08-1.25a13.94,13.94,0,0,0-5.3,1V8.42a14,14,0,0,1,5.62-1,6.61,6.61,0,0,1,4.34,1.26c1,.84,1.5,2.23,1.5,4.18m-4.08,4.37V15.34a1.86,1.86,0,0,1-.92.46l-1.68.49a3.32,3.32,0,0,0-1.51.78,1.75,1.75,0,0,0-.4,1.19,1.53,1.53,0,0,0,.48,1.17,1.69,1.69,0,0,0,1.22.45,2.9,2.9,0,0,0,2.06-.71,2.51,2.51,0,0,0,.75-1.92" transform="translate(0)"/><path class="cls-3" d="M180.24,22.57V7.82h3.42A5,5,0,0,1,184,9.7a4.3,4.3,0,0,1,1.46-1.55,4,4,0,0,1,2.27-.65,4.88,4.88,0,0,1,1.1.14v3.71a6.08,6.08,0,0,0-1.74-.21c-1.81,0-2.72,1-2.72,2.95v8.48Z" transform="translate(0)"/><path class="cls-3" d="M198.3,16.38l-2.61.61c-.71.17-1.07.55-1.07,1.13a1.52,1.52,0,0,0,.58,1.08,2.39,2.39,0,0,0,1.68.54A15.74,15.74,0,0,0,203,18.35v3.27A12.47,12.47,0,0,1,196.88,23a6.35,6.35,0,0,1-5.12-2.08A8.48,8.48,0,0,1,190,15.2a7.84,7.84,0,0,1,2-5.63,6.91,6.91,0,0,1,5.26-2.13,6.63,6.63,0,0,1,4.38,1.26,4,4,0,0,1,1.49,3.23A3.64,3.64,0,0,1,202,14.82a8.58,8.58,0,0,1-3.7,1.56m-1.07-5.73a2.75,2.75,0,0,0-2.32,1.09,4.66,4.66,0,0,0-.84,2.93V15a2.84,2.84,0,0,1,1.22-.55l1.79-.46c1.31-.33,2-.92,2-1.76a1.39,1.39,0,0,0-.48-1.13,2,2,0,0,0-1.34-.41" transform="translate(0)"/><path class="cls-3" d="M213.54,5.24a2.48,2.48,0,0,1-.75-1.82,2.48,2.48,0,0,1,.75-1.82,2.57,2.57,0,0,1,3.65,0,2.48,2.48,0,0,1,.75,1.82,2.48,2.48,0,0,1-.75,1.82,2.6,2.6,0,0,1-3.65,0m-.2,2.58h4.08V22.57h-4.08Z" transform="translate(0)"/><path class="cls-3" d="M221.5,17.83V1.62h4.08v16a2.4,2.4,0,0,0,.29,1.4,1.19,1.19,0,0,0,1,.36h.73v3.16a7,7,0,0,1-2.11.23,3.75,3.75,0,0,1-3-1.13,5.89,5.89,0,0,1-.94-3.76" transform="translate(0)"/><path class="cls-3" d="M84.66,49.29v-20a41,41,0,0,1,6.4-.43q8.23,0,8.24,6.57a6.32,6.32,0,0,1-2,5.08,10,10,0,0,1-5.63,2,6.54,6.54,0,0,0-1.91.33,1.27,1.27,0,0,0-.69.84,8,8,0,0,0-.2,2.21v3.42Zm4.26-16.87v7.4a9.66,9.66,0,0,1,2.69-.6,3.83,3.83,0,0,0,2.53-1.09,4.1,4.1,0,0,0,.77-2.73c0-2.1-1.33-3.16-4-3.16a11.33,11.33,0,0,0-2,.18" transform="translate(0)"/><path class="cls-3" d="M112.73,36.24a8.43,8.43,0,0,1,1.79,5.67,8.43,8.43,0,0,1-1.79,5.67,7.28,7.28,0,0,1-10.19,0,8.43,8.43,0,0,1-1.79-5.67,8.43,8.43,0,0,1,1.79-5.67,7.26,7.26,0,0,1,10.19,0m-5.09,10.15q2.74,0,2.74-4.48t-2.74-4.49c-1.84,0-2.75,1.5-2.75,4.49s.91,4.48,2.75,4.48" transform="translate(0)"/><path class="cls-3" d="M117.18,49.29V34.53h3.42a5,5,0,0,1,.29,1.88,4.47,4.47,0,0,1,1.46-1.55,4,4,0,0,1,2.27-.65,4.4,4.4,0,0,1,1.1.15v3.7a6.5,6.5,0,0,0-1.74-.2c-1.81,0-2.72,1-2.72,3v8.48Z" transform="translate(0)"/><path class="cls-3" d="M129.28,44.48V37.63H127.4v-3.1h1.88V31.2a10.81,10.81,0,0,1,4.08-1v4.34h3.41v3.1h-3.41v6.53a2.83,2.83,0,0,0,.37,1.74,1.7,1.7,0,0,0,1.33.44,7.18,7.18,0,0,0,2.17-.35v3.24a10,10,0,0,1-3.06.37,4.81,4.81,0,0,1-3.75-1.27,5.62,5.62,0,0,1-1.14-3.85" transform="translate(0)"/><path class="cls-3" d="M150.89,36.24a8.39,8.39,0,0,1,1.8,5.67,8.39,8.39,0,0,1-1.8,5.67,7.27,7.27,0,0,1-10.18,0,8.39,8.39,0,0,1-1.8-5.67,8.39,8.39,0,0,1,1.8-5.67,7.24,7.24,0,0,1,10.18,0M145.8,46.39q2.74,0,2.75-4.48t-2.75-4.49q-2.75,0-2.75,4.49t2.75,4.48" transform="translate(0)"/><path class="cls-3" d="M168.22,34.53V47.9a7.16,7.16,0,0,1-2.08,5.52,7.8,7.8,0,0,1-5.53,1.94,9,9,0,0,1-5.09-1.24V50.65A9.12,9.12,0,0,0,160.21,52a3.87,3.87,0,0,0,2.91-1.07,3.78,3.78,0,0,0,1-2.7V47.12a4.38,4.38,0,0,1-3.64,1.7,5.31,5.31,0,0,1-4.56-1.94,8.71,8.71,0,0,1-1.46-5.38,8.78,8.78,0,0,1,1.46-5.39,5.3,5.3,0,0,1,4.56-2,4.42,4.42,0,0,1,4,2.17,4.69,4.69,0,0,1,.29-1.79Zm-4.08,7c0-2.72-.92-4.08-2.78-4.08s-2.74,1.36-2.74,4.08.91,4.08,2.74,4.08,2.78-1.36,2.78-4.08" transform="translate(0)"/><path class="cls-3" d="M181,49.29V41.65a9.77,9.77,0,0,0-.29-2.9,1.76,1.76,0,0,0-1.85-1.21,2.57,2.57,0,0,0-2.18,1,5.66,5.66,0,0,0-.74,3.3v7.47h-4.08V28.34h4.08v7.78a5,5,0,0,1,4.17-2c2.21,0,3.69.87,4.42,2.61a10.8,10.8,0,0,1,.55,4v8.54Z" transform="translate(0)"/><path class="cls-3" d="M196.46,43.09l-2.6.61c-.72.17-1.07.55-1.07,1.13a1.47,1.47,0,0,0,.58,1.08,2.35,2.35,0,0,0,1.67.54,15.61,15.61,0,0,0,6.17-1.39v3.27A12.54,12.54,0,0,1,195,49.66a6.34,6.34,0,0,1-5.12-2.08,8.48,8.48,0,0,1-1.76-5.67,7.86,7.86,0,0,1,2-5.63,6.89,6.89,0,0,1,5.25-2.13,6.61,6.61,0,0,1,4.38,1.26,4.05,4.05,0,0,1,1.49,3.23,3.6,3.6,0,0,1-1.13,2.89,8.41,8.41,0,0,1-3.7,1.56m-1.07-5.72a2.75,2.75,0,0,0-2.31,1.08,4.67,4.67,0,0,0-.84,2.94v.29a2.57,2.57,0,0,1,1.21-.55l1.8-.47c1.31-.32,2-.91,2-1.76a1.43,1.43,0,0,0-.47-1.13,2,2,0,0,0-1.35-.4" transform="translate(0)"/><path class="cls-3" d="M210.09,34.15a11.13,11.13,0,0,1,4.65.93v3.27a10.6,10.6,0,0,0-4.39-1,2.3,2.3,0,0,0-1.32.32,1,1,0,0,0-.48.86,1,1,0,0,0,.41.87,5.14,5.14,0,0,0,1.47.67l1.36.43q3.68,1.18,3.68,4.31a4.28,4.28,0,0,1-1.62,3.6,7.45,7.45,0,0,1-4.66,1.26,11.53,11.53,0,0,1-4.83-1.1V45.15a10.12,10.12,0,0,0,4.86,1.33c1.39,0,2.08-.44,2.08-1.33a1.09,1.09,0,0,0-.4-.87,4.28,4.28,0,0,0-1.39-.66l-1.36-.47a6.57,6.57,0,0,1-2.81-1.68,4,4,0,0,1-1-2.83,4.09,4.09,0,0,1,1.43-3.23,6.29,6.29,0,0,1,4.27-1.26" transform="translate(0)"/><path class="cls-3" d="M226.2,43.09l-2.6.61c-.71.17-1.07.55-1.07,1.13a1.47,1.47,0,0,0,.58,1.08,2.35,2.35,0,0,0,1.67.54A15.61,15.61,0,0,0,231,45.06v3.27a12.52,12.52,0,0,1-6.17,1.33,6.34,6.34,0,0,1-5.12-2.08,8.53,8.53,0,0,1-1.76-5.67,7.86,7.86,0,0,1,2-5.63,6.89,6.89,0,0,1,5.25-2.13,6.61,6.61,0,0,1,4.38,1.26A4,4,0,0,1,231,38.64a3.62,3.62,0,0,1-1.12,2.89,8.51,8.51,0,0,1-3.71,1.56m-1.07-5.72a2.77,2.77,0,0,0-2.31,1.08,4.67,4.67,0,0,0-.84,2.94v.29a2.62,2.62,0,0,1,1.22-.55l1.79-.47c1.31-.32,2-.91,2-1.76a1.4,1.4,0,0,0-.48-1.13,2,2,0,0,0-1.35-.4" transform="translate(0)"/><polygon class="cls-4" points="97.1 69.28 97.1 63.54 98.31 63.54 98.31 68.28 100.36 68.28 100.36 69.28 97.1 69.28"/><rect class="cls-4" x="101.1" y="63.54" width="1.21" height="5.74"/><path class="cls-4" d="M103.59,69.28V63.54h1.1a19.39,19.39,0,0,1,1.3,1.83c.52.8.9,1.41,1.12,1.83V63.54h1.13v5.74h-1.12c-.27-.53-.67-1.22-1.18-2.06s-.92-1.46-1.22-1.85v3.91Z" transform="translate(0)"/><path class="cls-4" d="M112.68,67h-.9v-.94h2.06V68a1.62,1.62,0,0,1-.1.67,1.32,1.32,0,0,1-.5.44,2.87,2.87,0,0,1-1.4.31c-1.74,0-2.61-1-2.61-3a3.21,3.21,0,0,1,.69-2.22,2.67,2.67,0,0,1,2.06-.76,4.12,4.12,0,0,1,1.65.3v1a4.41,4.41,0,0,0-1.65-.33,1.3,1.3,0,0,0-1.16.51,2.68,2.68,0,0,0-.34,1.48,3,3,0,0,0,.3,1.49,1.14,1.14,0,0,0,1.06.5,2.47,2.47,0,0,0,.56-.06.35.35,0,0,0,.28-.36Z" transform="translate(0)"/><path class="cls-4" d="M116.22,63.54v3.64a1.4,1.4,0,0,0,.26.9,1,1,0,0,0,1.47,0,1.34,1.34,0,0,0,.26-.9V63.54h1.21v3.69a2.13,2.13,0,0,1-.59,1.6,2.25,2.25,0,0,1-1.61.56,2.29,2.29,0,0,1-1.62-.56,2.13,2.13,0,0,1-.59-1.6V63.54Z" transform="translate(0)"/><path class="cls-4" d="M121.82,63.54h1.39c.21.49.54,1.4,1,2.72s.74,2.33.89,3h-1.26c-.08-.38-.21-.83-.36-1.35h-1.89q-.24.78-.36,1.35H120c.15-.69.45-1.69.89-3s.76-2.23,1-2.72m.69,1.16q-.41,1.15-.69,2.25h1.39c-.19-.73-.42-1.48-.7-2.25" transform="translate(0)"/><polygon class="cls-4" points="127.8 69.28 127.8 63.54 131.52 63.54 131.52 64.53 129.01 64.53 129.01 65.86 131.17 65.86 131.17 66.83 129.01 66.83 129.01 68.3 131.52 68.3 131.52 69.28 127.8 69.28"/><path class="cls-4" d="M138.06,68.2v1a5.08,5.08,0,0,1-1.32.17,2.35,2.35,0,0,1-1.92-.77,3.36,3.36,0,0,1-.65-2.22,3.32,3.32,0,0,1,.65-2.2,2.35,2.35,0,0,1,1.92-.77,4.58,4.58,0,0,1,1.32.18v1a4.06,4.06,0,0,0-1.29-.2,1.48,1.48,0,0,0-.67.14,1,1,0,0,0-.42.43,2.3,2.3,0,0,0-.2.61,5.43,5.43,0,0,0,0,1.61,2.5,2.5,0,0,0,.2.62,1,1,0,0,0,.42.43,1.48,1.48,0,0,0,.67.14,3.8,3.8,0,0,0,1.29-.2" transform="translate(0)"/><path class="cls-4" d="M140.2,63.54v3.64a1.4,1.4,0,0,0,.26.9,1,1,0,0,0,1.48,0,1.4,1.4,0,0,0,.25-.9V63.54h1.21v3.69a2.09,2.09,0,0,1-.59,1.6,2.59,2.59,0,0,1-3.22,0,2.1,2.1,0,0,1-.6-1.6V63.54Z" transform="translate(0)"/><polygon class="cls-4" points="144.67 69.28 144.67 63.54 145.88 63.54 145.88 68.28 147.93 68.28 147.93 69.28 144.67 69.28"/><polygon class="cls-4" points="148.92 69.28 148.92 64.55 147.39 64.55 147.39 63.54 151.65 63.54 151.65 64.55 150.13 64.55 150.13 69.28 148.92 69.28"/><path class="cls-4" d="M153.54,63.54v3.64a1.4,1.4,0,0,0,.26.9,1,1,0,0,0,1.47,0,1.4,1.4,0,0,0,.26-.9V63.54h1.21v3.69a2.13,2.13,0,0,1-.59,1.6,2.27,2.27,0,0,1-1.61.56,2.29,2.29,0,0,1-1.62-.56,2.13,2.13,0,0,1-.59-1.6V63.54Z" transform="translate(0)"/><path class="cls-4" d="M158,69.28V63.59a11.51,11.51,0,0,1,1.82-.12q2.34,0,2.34,1.89a1.6,1.6,0,0,1-.32,1A1.8,1.8,0,0,1,161,67a8.45,8.45,0,0,1,.78,1,12.13,12.13,0,0,1,.71,1.29h-1.35a9.46,9.46,0,0,0-.62-1.12,7.69,7.69,0,0,0-.65-.93l-.24,0a.45.45,0,0,0-.35.21,1.68,1.68,0,0,0-.08.69v1.1Zm1.21-4.79v2a2.59,2.59,0,0,1,.73-.16c.65-.08,1-.39,1-.94s-.38-.92-1.14-.92a2.75,2.75,0,0,0-.57,0" transform="translate(0)"/><path class="cls-4" d="M164.7,63.54h1.38c.22.49.55,1.4,1,2.72s.73,2.33.88,3H166.7c-.09-.38-.21-.83-.37-1.35h-1.89q-.23.78-.36,1.35h-1.26c.15-.69.45-1.69.89-3s.77-2.23,1-2.72m.69,1.16c-.28.77-.51,1.52-.7,2.25h1.4c-.19-.73-.43-1.48-.7-2.25" transform="translate(0)"/><path class="cls-4" d="M170.67,69.27V63.59a10.91,10.91,0,0,1,1.82-.12c1.86,0,2.79,1,2.79,3s-.93,2.93-2.79,2.93a15.05,15.05,0,0,1-1.82-.09m1.21-4.78v3.86l.56,0a1.44,1.44,0,0,0,1.22-.49,2.39,2.39,0,0,0,.37-1.45,2.55,2.55,0,0,0-.35-1.48,1.43,1.43,0,0,0-1.24-.5,5.09,5.09,0,0,0-.56,0" transform="translate(0)"/><polygon class="cls-4" points="176.27 69.28 176.27 63.54 180 63.54 180 64.53 177.48 64.53 177.48 65.86 179.65 65.86 179.65 66.83 177.48 66.83 177.48 68.3 180 68.3 180 69.28 176.27 69.28"/><polygon class="cls-4" points="181 69.28 181 63.54 182.21 63.54 182.21 68.28 184.26 68.28 184.26 69.28 181 69.28"/><path class="cls-4" d="M188.66,69.36a15.16,15.16,0,0,1-1.72-.09V63.59c.1,0,.36-.05.77-.08s.74,0,1,0a3,3,0,0,1,1.69.38,1.38,1.38,0,0,1,.54,1.2,1.1,1.1,0,0,1-.24.7,1.2,1.2,0,0,1-.6.44,1.44,1.44,0,0,1,1.12,1.45,1.51,1.51,0,0,1-.57,1.28,3.4,3.4,0,0,1-2,.44m0-4.91a5.48,5.48,0,0,0-.55,0v1.39h.49c.7,0,1.05-.25,1.05-.74a.61.61,0,0,0-.22-.52,1.3,1.3,0,0,0-.77-.17m.17,2.35h-.72v1.55l.8,0c.68,0,1-.27,1-.8s-.36-.77-1.09-.77" transform="translate(0)"/><path class="cls-4" d="M192.2,69.28V63.59a11.6,11.6,0,0,1,1.82-.12q2.34,0,2.34,1.89a1.55,1.55,0,0,1-.32,1,1.75,1.75,0,0,1-.83.58,6.81,6.81,0,0,1,.78,1,12.13,12.13,0,0,1,.71,1.29h-1.35a9.46,9.46,0,0,0-.62-1.12,6.7,6.7,0,0,0-.65-.93l-.23,0a.49.49,0,0,0-.36.21,1.89,1.89,0,0,0-.08.69v1.1Zm1.21-4.79v2a2.68,2.68,0,0,1,.73-.16c.65-.08,1-.39,1-.94s-.38-.92-1.13-.92a2.78,2.78,0,0,0-.58,0" transform="translate(0)"/><path class="cls-4" d="M198.89,63.54h1.38c.22.49.55,1.4,1,2.72s.73,2.33.89,3h-1.26q-.13-.57-.36-1.35h-1.9q-.23.78-.36,1.35H197c.16-.69.45-1.69.89-3s.77-2.23,1-2.72m.69,1.16c-.27.77-.51,1.52-.7,2.25h1.4c-.19-.73-.43-1.48-.7-2.25" transform="translate(0)"/><path class="cls-4" d="M204.73,63.43a4.17,4.17,0,0,1,1.64.32v1a4.23,4.23,0,0,0-1.66-.35,1,1,0,0,0-.59.17.56.56,0,0,0-.23.46.49.49,0,0,0,.18.4,1.64,1.64,0,0,0,.55.28l.73.24a1.66,1.66,0,0,1,1.31,1.69A1.48,1.48,0,0,1,206,69a2.82,2.82,0,0,1-1.66.44,3.84,3.84,0,0,1-1.72-.39V68a3.89,3.89,0,0,0,1.75.45,1.32,1.32,0,0,0,.7-.17.58.58,0,0,0,.08-1,2.06,2.06,0,0,0-.65-.32l-.6-.19a1.65,1.65,0,0,1-1.3-1.66,1.48,1.48,0,0,1,.54-1.22,2.37,2.37,0,0,1,1.55-.45" transform="translate(0)"/><rect class="cls-4" x="207.68" y="63.54" width="1.21" height="5.74"/><polygon class="cls-4" points="210.17 69.28 210.17 63.54 211.38 63.54 211.38 68.28 213.43 68.28 213.43 69.28 210.17 69.28"/><polygon class="cls-4" points="214.17 69.28 214.17 63.54 217.89 63.54 217.89 64.53 215.38 64.53 215.38 65.86 217.54 65.86 217.54 66.83 215.38 66.83 215.38 68.3 217.89 68.3 217.89 69.28 214.17 69.28"/><path class="cls-4" d="M70.07,32.09,39.51,1.53a5.26,5.26,0,0,0-7.42,0L1.54,32.09a5.24,5.24,0,0,0,0,7.42L32.09,70.07a5.26,5.26,0,0,0,7.42,0L47.58,62l2-2,3.9-3.9L70.07,39.51a5.26,5.26,0,0,0,0-7.42" transform="translate(0)"/><path class="cls-5" d="M43.64,55.88a17,17,0,0,1-2,.69L47.58,62l1.84-1.83a15.45,15.45,0,0,1-5.78-4.28" transform="translate(0)"/><path class="cls-6" d="M50,51.91a21.07,21.07,0,1,0-8.33,4.66,17,17,0,0,0,2-.69,15.6,15.6,0,0,0,5.77,4.28,20.12,20.12,0,0,0,2.84,1,.79.79,0,0,0,.9-1.17A21,21,0,0,1,50,51.91" transform="translate(0)"/></g></g></g></svg>