<?xml version="1.0" encoding="utf-8"?>
<!-- Generator: Adobe Illustrator 24.0.1, SVG Export Plug-In . SVG Version: 6.00 Build 0)  -->
<svg version="1.1" id="Layer_1" xmlns="http://www.w3.org/2000/svg" xmlns:xlink="http://www.w3.org/1999/xlink" x="0px" y="0px"
	 viewBox="0 0 231 71.6" style="enable-background:new 0 0 231 71.6;" xml:space="preserve">
<style type="text/css">
	.st0{fill:#FFFFFF;}
	.st1{fill:#F9C224;}
	.st2{fill:#F99E33;}
	.st3{fill:#00B6DA;}
</style>
<title>LOGO</title>
<path class="st0" d="M88.7,22.6V2.4H93v20.2L88.7,22.6z"/>
<path class="st0" d="M105.3,7.4c2.2,0,3.6,0.8,4.3,2.5c0.4-0.8,1-1.4,1.8-1.8c0.8-0.5,1.8-0.7,2.7-0.7c1.9-0.2,3.6,0.9,4.3,2.6
	c0.4,1.3,0.6,2.6,0.6,4v8.5h-4.1v-7.7c0-1,0-1.9-0.3-2.9c-0.2-0.7-0.9-1.3-1.7-1.2c-0.8,0-1.6,0.3-2.1,1c-0.5,1-0.8,2.1-0.7,3.3v7.5
	H106v-7.6c0.1-1,0-1.9-0.3-2.9c-0.2-0.7-0.9-1.3-1.6-1.2c-0.8-0.1-1.6,0.3-2.1,1c-0.5,1-0.8,2.1-0.7,3.3v7.5h-4.1V7.8h3.4
	c0.2,0.6,0.3,1.3,0.3,2c0.4-0.7,1-1.3,1.7-1.7C103.4,7.6,104.4,7.4,105.3,7.4z"/>
<path class="st0" d="M130.1,7.4c4,0,6,2.6,6,7.7c0.1,2-0.4,4-1.4,5.7c-1,1.4-2.7,2.1-4.4,2c-0.8,0-1.6-0.2-2.3-0.5
	c-0.6-0.3-1.1-0.7-1.5-1.3v7.2h-4.1V7.8h3.4c0.2,0.6,0.3,1.2,0.3,1.8C126.9,8.2,128.5,7.4,130.1,7.4z M129.2,10.7
	c-1.8,0-2.8,1.5-2.8,4.5c0,3,0.9,4.5,2.8,4.5c1.8,0,2.8-1.5,2.8-4.5C132,12.2,131.1,10.7,129.2,10.7L129.2,10.7z"/>
<path class="st0" d="M151.2,12.9v9.7h-3.4c-0.2-0.5-0.3-1.1-0.3-1.7c-1.1,1.3-2.8,2.1-4.5,2c-1.2,0-2.4-0.4-3.2-1.3
	c-1.6-1.7-1.6-4.3-0.1-6c1-0.9,2.3-1.6,3.6-1.8l2.3-0.6c0.4-0.1,0.9-0.3,1.2-0.5c0.2-0.2,0.4-0.5,0.4-0.8c0-0.8-0.7-1.2-2.1-1.2
	c-1.8,0-3.6,0.3-5.3,1V8.4c1.8-0.7,3.7-1.1,5.6-1c1.6-0.1,3.1,0.3,4.4,1.2C150.7,9.5,151.2,10.9,151.2,12.9z M147.1,17.2v-1.9
	c-0.3,0.2-0.6,0.4-0.9,0.5l-1.7,0.5c-0.6,0.1-1.1,0.4-1.5,0.8c-0.3,0.3-0.4,0.8-0.4,1.2c0,0.4,0.2,0.9,0.5,1.2
	c0.3,0.3,0.8,0.5,1.2,0.5c0.8,0,1.5-0.2,2.1-0.7C146.9,18.7,147.1,18,147.1,17.2z"/>
<path class="st0" d="M154.7,22.6V7.8h3.4c0.2,0.6,0.3,1.2,0.3,1.9c0.4-0.6,0.9-1.2,1.5-1.5c0.7-0.4,1.5-0.7,2.3-0.7
	c0.4,0,0.7,0.1,1.1,0.2v3.7c-0.6-0.1-1.2-0.2-1.7-0.2c-1.8,0-2.7,1-2.7,3v8.5L154.7,22.6z"/>
<path class="st0" d="M176.8,12.9v9.7h-3.4c-0.2-0.5-0.3-1.1-0.3-1.7c-1.1,1.3-2.8,2.1-4.5,2c-1.2,0.1-2.4-0.4-3.2-1.2
	c-1.6-1.7-1.7-4.3-0.1-6c1-0.9,2.3-1.6,3.6-1.8l2.3-0.6c0.4-0.1,0.9-0.3,1.2-0.5c0.2-0.2,0.4-0.5,0.4-0.8c0-0.8-0.7-1.2-2.1-1.2
	c-1.8,0-3.6,0.3-5.3,1V8.4c1.8-0.7,3.7-1.1,5.6-1c1.5-0.1,3.1,0.3,4.3,1.2C176.4,9.7,177,11.3,176.8,12.9z M172.7,17.2v-1.9
	c-0.3,0.2-0.6,0.4-0.9,0.5l-1.7,0.5c-0.6,0.1-1.1,0.4-1.5,0.8c-0.3,0.3-0.4,0.8-0.4,1.2c0,0.4,0.2,0.9,0.5,1.2
	c0.3,0.3,0.8,0.5,1.2,0.5c0.7,0,1.5-0.2,2.1-0.7C172.5,18.7,172.7,18,172.7,17.2L172.7,17.2z"/>
<path class="st0" d="M180.2,22.6V7.8h3.4c0.2,0.6,0.3,1.2,0.3,1.9c0.4-0.6,0.9-1.2,1.5-1.5c0.7-0.4,1.5-0.7,2.3-0.7
	c0.4,0,0.7,0.1,1.1,0.2v3.7c-0.6-0.1-1.1-0.2-1.7-0.2c-1.8,0-2.7,1-2.7,3v8.5L180.2,22.6z"/>
<path class="st0" d="M198.3,16.4l-2.6,0.6c-0.7,0.2-1.1,0.5-1.1,1.1c0,0.4,0.2,0.8,0.6,1.1c0.5,0.4,1.1,0.6,1.7,0.5
	c2.1,0,4.2-0.5,6.2-1.4v3.3c-1.9,1-4,1.4-6.2,1.3c-1.9,0.1-3.8-0.6-5.1-2.1c-1.2-1.6-1.9-3.6-1.8-5.7c-0.1-2.1,0.6-4.1,2-5.6
	c1.4-1.4,3.3-2.2,5.3-2.1c1.6-0.1,3.1,0.3,4.4,1.2c1,0.8,1.5,2,1.5,3.2c0.1,1.1-0.3,2.1-1.1,2.9C200.9,15.6,199.6,16.2,198.3,16.4z
	 M197.2,10.7c-0.9,0-1.8,0.4-2.3,1.1c-0.6,0.9-0.9,1.9-0.8,2.9V15c0.4-0.3,0.8-0.5,1.2-0.5l1.8-0.5c1.3-0.3,2-0.9,2-1.8
	c0-0.4-0.1-0.8-0.5-1.1C198.2,10.8,197.7,10.6,197.2,10.7L197.2,10.7z"/>
<path class="st0" d="M213.5,5.2c-1-1-1-2.6,0-3.6c0.5-0.5,1.1-0.7,1.8-0.8c1.4,0,2.6,1.1,2.6,2.6S216.8,6,215.4,6
	C214.7,6,214,5.7,213.5,5.2z M213.3,22.6V7.8h4.1v14.8L213.3,22.6z"/>
<path class="st0" d="M221.5,17.8V1.6h4.1v15.9c-0.1,0.5,0,1,0.3,1.4c0.3,0.3,0.6,0.4,1,0.4h0.7v3.2c-0.7,0.2-1.4,0.3-2.1,0.2
	c-1.1,0.1-2.2-0.3-3-1.1C221.7,20.5,221.4,19.2,221.5,17.8z"/>
<path class="st0" d="M84.7,49.3v-20c2.1-0.3,4.3-0.5,6.4-0.4c5.5,0,8.3,2.2,8.3,6.6c0.1,1.9-0.6,3.8-2,5.1c-1.6,1.2-3.6,1.9-5.6,2
	c-0.6,0-1.3,0.1-1.9,0.3c-0.3,0.2-0.6,0.5-0.7,0.8c-0.2,0.7-0.2,1.5-0.2,2.2v3.4H84.7z M88.9,32.4v7.4c0.9-0.3,1.8-0.5,2.7-0.6
	c0.9,0,1.9-0.4,2.5-1.1c0.6-0.8,0.8-1.8,0.8-2.7c0-2.1-1.3-3.2-4-3.2C90.2,32.3,89.6,32.3,88.9,32.4L88.9,32.4z"/>
<path class="st0" d="M112.7,36.2c1.3,1.6,1.9,3.6,1.8,5.7c0.1,2-0.5,4.1-1.8,5.7c-2.8,2.8-7.4,2.8-10.2,0c-1.3-1.6-1.9-3.6-1.8-5.7
	c-0.1-2,0.5-4.1,1.8-5.7C105.4,33.5,109.9,33.5,112.7,36.2L112.7,36.2z M107.6,46.4c1.8,0,2.8-1.5,2.8-4.5c0-3-0.9-4.5-2.8-4.5
	c-1.8,0-2.7,1.5-2.8,4.5C104.9,44.9,105.8,46.4,107.6,46.4z"/>
<path class="st0" d="M117.2,49.3V34.5h3.4c0.2,0.6,0.3,1.2,0.3,1.9c0.4-0.6,0.9-1.2,1.5-1.5c0.7-0.4,1.5-0.7,2.3-0.7
	c0.4,0,0.7,0,1.1,0.1v3.7c-0.6-0.1-1.1-0.2-1.7-0.2c-1.8,0-2.7,1-2.7,3v8.5H117.2z"/>
<path class="st0" d="M129.3,44.5v-6.9h-1.9v-3.1h1.9v-3.3c1.3-0.6,2.7-0.9,4.1-1v4.3h3.4v3.1h-3.4v6.5c-0.1,0.6,0.1,1.2,0.4,1.7
	c0.4,0.3,0.8,0.5,1.3,0.4c0.7,0,1.5-0.1,2.2-0.3v3.2c-1,0.3-2,0.4-3.1,0.4c-1.4,0.1-2.7-0.4-3.8-1.3
	C129.6,47.2,129.2,45.9,129.3,44.5z"/>
<path class="st0" d="M150.9,36.2c1.3,1.6,1.9,3.6,1.8,5.7c0.1,2-0.5,4.1-1.8,5.7c-2.8,2.8-7.4,2.8-10.2,0c-1.3-1.6-1.9-3.6-1.8-5.7
	c-0.1-2,0.5-4.1,1.8-5.7C143.5,33.5,148.1,33.5,150.9,36.2z M145.8,46.4c1.8,0,2.8-1.5,2.8-4.5s-0.9-4.5-2.8-4.5s-2.7,1.5-2.7,4.5
	S144,46.4,145.8,46.4z"/>
<path class="st0" d="M168.2,34.5v13.4c0.1,2.1-0.6,4.1-2.1,5.5c-1.5,1.3-3.5,2-5.5,1.9c-1.8,0.1-3.6-0.3-5.1-1.3v-3.5
	c1.4,0.9,3,1.3,4.7,1.4c1.1,0.1,2.1-0.3,2.9-1.1c0.7-0.7,1-1.7,1-2.7v-1.1c-0.9,1.1-2.2,1.8-3.6,1.7c-1.7,0.1-3.4-0.6-4.6-1.9
	c-1.1-1.6-1.6-3.5-1.5-5.4c-0.1-1.9,0.4-3.8,1.5-5.4c1.1-1.4,2.8-2.1,4.6-2c1.6-0.1,3.2,0.8,4,2.2c0-0.6,0.1-1.2,0.3-1.8L168.2,34.5
	z M164.1,41.5c0-2.7-0.9-4.1-2.8-4.1c-1.9,0-2.8,1.4-2.8,4.1c0,2.7,0.9,4.1,2.8,4.1C163.2,45.6,164.1,44.2,164.1,41.5L164.1,41.5z"
	/>
<path class="st0" d="M181,49.3v-7.7c0-1-0.1-1.9-0.3-2.9c-0.3-0.8-1-1.3-1.9-1.2c-0.9-0.1-1.7,0.3-2.2,1c-0.6,1-0.8,2.2-0.7,3.3v7.5
	h-4.1v-21h4.1v7.8c1-1.3,2.5-2.1,4.2-2c2.2,0,3.7,0.9,4.4,2.6c0.4,1.3,0.6,2.6,0.6,4v8.6H181z"/>
<path class="st0" d="M196.5,43.1l-2.6,0.6c-0.7,0.2-1.1,0.6-1.1,1.1c0,0.4,0.2,0.8,0.6,1.1c0.5,0.4,1.1,0.6,1.7,0.5
	c2.1,0,4.2-0.5,6.2-1.4v3.3c-1.9,1-4,1.4-6.2,1.3c-1.9,0.1-3.8-0.6-5.1-2.1c-1.3-1.6-1.9-3.6-1.8-5.7c-0.1-2.1,0.6-4.1,2-5.6
	c1.4-1.4,3.3-2.2,5.3-2.1c1.6-0.1,3.1,0.4,4.4,1.3c1,0.8,1.5,2,1.5,3.2c0.1,1.1-0.3,2.2-1.1,2.9C199.1,42.3,197.8,42.9,196.5,43.1z
	 M195.4,37.4c-0.9,0-1.8,0.4-2.3,1.1c-0.6,0.9-0.9,1.9-0.8,2.9v0.3c0.4-0.3,0.8-0.5,1.2-0.6l1.8-0.5c1.3-0.3,2-0.9,2-1.8
	c0-0.4-0.2-0.8-0.5-1.1C196.4,37.5,195.9,37.3,195.4,37.4L195.4,37.4z"/>
<path class="st0" d="M210.1,34.2c1.6,0,3.2,0.3,4.7,0.9v3.2c-1.4-0.6-2.9-1-4.4-1c-0.5,0-0.9,0.1-1.3,0.3c-0.3,0.2-0.5,0.5-0.5,0.9
	c0,0.3,0.1,0.7,0.4,0.9c0.5,0.3,1,0.5,1.5,0.7l1.4,0.4c2.4,0.8,3.7,2.2,3.7,4.3c0.1,1.4-0.5,2.7-1.6,3.6c-1.4,0.9-3,1.4-4.7,1.3
	c-1.7,0-3.3-0.4-4.8-1.1v-3.4c1.5,0.8,3.2,1.3,4.9,1.3c1.4,0,2.1-0.4,2.1-1.3c0-0.3-0.1-0.7-0.4-0.9c-0.4-0.3-0.9-0.5-1.4-0.7
	l-1.4-0.5c-1.1-0.3-2-0.9-2.8-1.7c-0.7-0.8-1-1.8-1-2.8c0-1.2,0.5-2.4,1.4-3.2C207,34.5,208.5,34,210.1,34.2z"/>
<path class="st0" d="M226.2,43.1l-2.6,0.6c-0.7,0.2-1.1,0.6-1.1,1.1c0,0.4,0.2,0.8,0.6,1.1c0.5,0.4,1.1,0.6,1.7,0.5
	c2.1,0,4.2-0.5,6.2-1.4v3.3c-1.9,1-4,1.4-6.2,1.3c-1.9,0.1-3.8-0.6-5.1-2.1c-1.3-1.6-1.9-3.6-1.8-5.7c-0.1-2.1,0.6-4.1,2-5.6
	c1.4-1.4,3.3-2.2,5.3-2.1c1.6-0.1,3.1,0.3,4.4,1.3c1,0.8,1.5,2,1.5,3.2c0.1,1.1-0.3,2.2-1.1,2.9C228.8,42.3,227.5,42.9,226.2,43.1z
	 M225.1,37.4c-0.9-0.1-1.8,0.4-2.3,1.1c-0.6,0.9-0.9,1.9-0.8,2.9v0.3c0.4-0.3,0.8-0.5,1.2-0.6l1.8-0.5c1.3-0.3,2-0.9,2-1.8
	c0-0.4-0.2-0.8-0.5-1.1C226.1,37.5,225.6,37.3,225.1,37.4L225.1,37.4z"/>
<path class="st1" d="M97.1,69.3v-5.8h1.2v4.8h2v1H97.1z"/>
<path class="st1" d="M101.1,69.3v-5.8h1.2v5.8H101.1z"/>
<path class="st1" d="M103.6,69.3v-5.8h1.1c0.5,0.6,0.9,1.2,1.3,1.8c0.5,0.8,0.9,1.4,1.1,1.8v-3.7h1.1v5.8h-1.1
	c-0.3-0.5-0.7-1.2-1.2-2.1s-0.9-1.4-1.2-1.8v3.9H103.6z"/>
<path class="st1" d="M112.7,67h-0.9v-0.9h2.1V68c0,0.2,0,0.5-0.1,0.7c-0.1,0.2-0.3,0.3-0.5,0.4c-0.4,0.2-0.9,0.3-1.4,0.3
	c-1.7,0-2.6-1-2.6-3c-0.1-0.8,0.2-1.6,0.7-2.2c0.5-0.5,1.3-0.8,2.1-0.8c0.6,0,1.1,0.1,1.6,0.3v1c-0.5-0.2-1.1-0.3-1.6-0.3
	c-0.5,0-0.9,0.1-1.2,0.5c-0.3,0.5-0.4,1-0.3,1.5c0,0.5,0.1,1,0.3,1.5c0.2,0.4,0.6,0.6,1.1,0.5c0.2,0,0.4,0,0.6-0.1
	c0.2,0,0.3-0.2,0.3-0.3L112.7,67z"/>
<path class="st1" d="M116.2,63.5v3.6c0,0.3,0.1,0.6,0.3,0.9c0.2,0.2,0.4,0.3,0.7,0.3c0.3,0,0.6-0.1,0.7-0.3c0.2-0.3,0.3-0.6,0.3-0.9
	v-3.6h1.2v3.7c0,0.6-0.2,1.2-0.6,1.6c-0.9,0.7-2.3,0.7-3.2,0c-0.4-0.4-0.6-1-0.6-1.6v-3.7H116.2z"/>
<path class="st1" d="M121.8,63.5h1.4c0.2,0.5,0.6,1.4,1,2.7c0.4,1.3,0.7,2.3,0.9,3h-1.3c-0.1-0.4-0.2-0.8-0.4-1.4h-1.9
	c-0.1,0.5-0.3,1-0.4,1.4h-1.3c0.2-0.7,0.4-1.7,0.9-3S121.6,64,121.8,63.5z M122.5,64.7c-0.3,0.8-0.5,1.5-0.7,2.2h1.4
	C123,66.2,122.8,65.5,122.5,64.7L122.5,64.7z"/>
<path class="st1" d="M127.8,69.3v-5.8h3.7v1H129v1.3h2.2v1H129v1.4h2.5v1H127.8z"/>
<path class="st1" d="M138.1,68.2v1c-0.4,0.1-0.9,0.2-1.3,0.2c-0.7,0.1-1.4-0.2-1.9-0.8c-0.5-0.6-0.7-1.4-0.6-2.2
	c-0.1-0.8,0.2-1.6,0.6-2.2c0.5-0.5,1.2-0.8,1.9-0.8c0.4,0,0.9,0.1,1.3,0.2v1c-0.4-0.1-0.8-0.2-1.3-0.2c-0.2,0-0.5,0-0.7,0.1
	c-0.2,0.1-0.3,0.2-0.4,0.4c-0.1,0.2-0.2,0.4-0.2,0.6c0,0.3-0.1,0.5-0.1,0.8c0,0.3,0,0.5,0.1,0.8c0,0.2,0.1,0.4,0.2,0.6
	c0.1,0.2,0.2,0.3,0.4,0.4c0.2,0.1,0.4,0.2,0.7,0.2C137.2,68.4,137.6,68.3,138.1,68.2z"/>
<path class="st1" d="M140.2,63.5v3.6c0,0.3,0.1,0.6,0.3,0.9c0.4,0.4,1,0.4,1.4,0.1c0,0,0,0,0.1-0.1c0.2-0.3,0.3-0.6,0.3-0.9v-3.6
	h1.2v3.7c0,0.6-0.2,1.2-0.6,1.6c-0.9,0.7-2.3,0.7-3.2,0c-0.4-0.4-0.6-1-0.6-1.6v-3.7H140.2z"/>
<path class="st1" d="M144.7,69.3v-5.8h1.2v4.8h2v1H144.7z"/>
<path class="st1" d="M148.9,69.3v-4.8h-1.5v-1h4.3v1h-1.5v4.8H148.9z"/>
<path class="st1" d="M153.5,63.5v3.6c0,0.3,0.1,0.6,0.3,0.9c0.4,0.4,1,0.4,1.4,0.1c0,0,0,0,0.1-0.1c0.2-0.3,0.3-0.6,0.3-0.9v-3.6
	h1.3v3.7c0,0.6-0.2,1.2-0.6,1.6c-0.9,0.7-2.3,0.7-3.2,0c-0.4-0.4-0.6-1-0.6-1.6v-3.7H153.5z"/>
<path class="st1" d="M158,69.3v-5.7c0.6-0.1,1.2-0.1,1.8-0.1c1.6,0,2.4,0.6,2.4,1.9c0,0.4-0.1,0.7-0.3,1c-0.2,0.3-0.5,0.5-0.8,0.6
	c0.3,0.3,0.6,0.7,0.8,1.1c0.3,0.4,0.5,0.8,0.7,1.3h-1.4c-0.2-0.4-0.4-0.8-0.6-1.1c-0.2-0.3-0.4-0.6-0.6-0.9h-0.2
	c-0.1,0-0.3,0.1-0.4,0.2c-0.1,0.2-0.1,0.5-0.1,0.7v1.2H158z M159.2,64.5v2c0.2-0.1,0.5-0.2,0.7-0.2c0.7-0.1,1-0.4,1-0.9
	s-0.4-0.9-1.1-0.9C159.6,64.5,159.4,64.5,159.2,64.5L159.2,64.5z"/>
<path class="st1" d="M164.7,63.5h1.4c0.2,0.5,0.6,1.4,1,2.7c0.4,1.3,0.7,2.3,0.9,3h-1.3c-0.1-0.4-0.2-0.8-0.4-1.4h-1.9
	c-0.2,0.5-0.3,1-0.4,1.4h-1.3c0.1-0.7,0.4-1.7,0.9-3S164.5,64,164.7,63.5z M165.4,64.7c-0.3,0.8-0.5,1.5-0.7,2.2h1.4
	C165.9,66.2,165.7,65.5,165.4,64.7z"/>
<path class="st1" d="M170.7,69.3v-5.7c0.6-0.1,1.2-0.1,1.8-0.1c1.9,0,2.8,1,2.8,3s-0.9,2.9-2.8,2.9
	C171.9,69.4,171.3,69.4,170.7,69.3z M171.9,64.5v3.8c0.2,0,0.4,0,0.6,0c0.5,0,0.9-0.1,1.2-0.5c0.3-0.4,0.4-0.9,0.4-1.4
	c0-0.5-0.1-1-0.4-1.5c-0.3-0.4-0.8-0.6-1.2-0.5C172.2,64.4,172.1,64.5,171.9,64.5L171.9,64.5z"/>
<path class="st1" d="M176.3,69.3v-5.8h3.7v1h-2.5v1.3h2.2v1h-2.2v1.4h2.5v1H176.3z"/>
<path class="st1" d="M181,69.3v-5.8h1.2v4.8h2v1H181z"/>
<path class="st1" d="M188.7,69.3c-0.6,0-1.1,0-1.7-0.1v-5.6c0.1,0,0.4,0,0.8-0.1s0.7,0,1,0c0.6,0,1.2,0.1,1.7,0.4
	c0.4,0.3,0.6,0.7,0.5,1.2c0,0.3-0.1,0.5-0.2,0.7c-0.2,0.2-0.4,0.4-0.6,0.4c0.7,0.2,1.1,0.8,1.1,1.4c0,0.5-0.2,1-0.6,1.3
	C190,69.3,189.3,69.4,188.7,69.3z M188.7,64.4c-0.2,0-0.4,0-0.6,0v1.4h0.5c0.7,0,1.1-0.3,1.1-0.7c0-0.2-0.1-0.4-0.2-0.5
	C189.2,64.4,189,64.4,188.7,64.4L188.7,64.4z M188.8,66.8h-0.7v1.6c0.2,0,0.4,0,0.8,0c0.7,0,1-0.3,1-0.8S189.6,66.8,188.8,66.8
	L188.8,66.8z"/>
<path class="st1" d="M192.2,69.3v-5.7c0.6-0.1,1.2-0.1,1.8-0.1c1.6,0,2.4,0.6,2.4,1.9c0,0.4-0.1,0.7-0.3,1c-0.2,0.3-0.5,0.5-0.8,0.6
	c0.3,0.3,0.5,0.7,0.8,1.1c0.3,0.4,0.5,0.8,0.7,1.3h-1.4c-0.2-0.4-0.4-0.8-0.6-1.1c-0.2-0.3-0.4-0.6-0.6-0.9h-0.2
	c-0.1,0-0.3,0.1-0.4,0.2c-0.1,0.2-0.1,0.5-0.1,0.7v1.2H192.2z M193.4,64.5v2c0.2-0.1,0.5-0.2,0.7-0.2c0.6-0.1,1-0.4,1-0.9
	s-0.4-0.9-1.1-0.9C193.8,64.5,193.6,64.5,193.4,64.5L193.4,64.5z"/>
<path class="st1" d="M198.9,63.5h1.4c0.2,0.5,0.5,1.4,1,2.7s0.7,2.3,0.9,3h-1.3c-0.1-0.4-0.2-0.8-0.4-1.4h-1.9
	c-0.2,0.5-0.3,1-0.4,1.4H197c0.1-0.7,0.4-1.7,0.9-3S198.7,64,198.9,63.5z M199.6,64.7c-0.3,0.8-0.5,1.5-0.7,2.2h1.4
	C200.1,66.2,199.9,65.5,199.6,64.7z"/>
<path class="st1" d="M204.8,63.4c0.6,0,1.1,0.1,1.6,0.3v1c-0.5-0.2-1.1-0.3-1.6-0.3c-0.2,0-0.4,0-0.6,0.2c-0.2,0.2-0.3,0.5-0.1,0.8
	c0,0,0,0.1,0.1,0.1c0.2,0.1,0.3,0.2,0.5,0.3l0.7,0.2c0.8,0.2,1.3,0.9,1.3,1.7c0,0.5-0.2,1-0.6,1.3c-0.5,0.3-1.1,0.5-1.7,0.4
	c-0.6,0-1.2-0.1-1.7-0.4v-1c0.5,0.3,1.1,0.4,1.8,0.5c0.2,0,0.5-0.1,0.7-0.2c0.2-0.1,0.3-0.3,0.3-0.5c0-0.2-0.1-0.3-0.2-0.4
	c-0.2-0.1-0.4-0.2-0.6-0.3l-0.6-0.2c-0.8-0.2-1.3-0.9-1.3-1.7c0-0.5,0.2-0.9,0.5-1.2C203.7,63.6,204.2,63.4,204.8,63.4z"/>
<path class="st1" d="M207.7,69.3v-5.8h1.2v5.8H207.7z"/>
<path class="st1" d="M210.2,69.3v-5.8h1.2v4.8h2v1H210.2z"/>
<path class="st1" d="M214.2,69.3v-5.8h3.7v1h-2.5v1.3h2.2v1h-2.2v1.4h2.5v1H214.2z"/>
<path class="st1" d="M70.1,32.1L39.5,1.5c-2-2-5.4-2.1-7.4,0c0,0,0,0,0,0L1.5,32.1c-2,2-2.1,5.4,0,7.4c0,0,0,0,0,0l30.6,30.6
	c2,2,5.4,2.1,7.4,0c0,0,0,0,0,0l8.1-8.1l2-2l3.9-3.9l16.6-16.6C72.1,37.5,72.1,34.2,70.1,32.1C70.1,32.1,70.1,32.1,70.1,32.1z"/>
<path class="st2" d="M43.6,55.9c-0.7,0.3-1.3,0.5-2,0.7l6,5.4l1.8-1.8C47.2,59.2,45.2,57.8,43.6,55.9z"/>
<path class="st3" d="M50,51.9c8.6-7.8,9.2-21.1,1.3-29.7s-21.1-9.2-29.7-1.3S12.5,42,20.3,50.6c5.4,5.9,13.7,8.2,21.3,6
	c0.7-0.2,1.3-0.4,2-0.7c1.6,1.9,3.5,3.3,5.8,4.3c0.9,0.4,1.9,0.7,2.8,1c0.4,0.1,0.9-0.1,1-0.5c0.1-0.2,0-0.4-0.1-0.6
	C51.5,57.5,50.5,54.8,50,51.9z"/>
</svg>
