<svg xmlns="http://www.w3.org/2000/svg" viewBox="0 0 37.95 27.17"><defs><style>.cls-1{fill:#eac13a;stroke:#eac13a;stroke-miterlimit:10;}</style></defs><title>youtube3</title><g id="Camada_2" data-name="Camada 2"><g id="Camada_1-2" data-name="Camada 1"><path class="cls-1" d="M29.06,26.67H8.89A8.4,8.4,0,0,1,.5,18.28V8.89A8.39,8.39,0,0,1,8.89.5H29.06a8.39,8.39,0,0,1,8.39,8.39v9.39A8.4,8.4,0,0,1,29.06,26.67ZM8.89,1.5A7.39,7.39,0,0,0,1.5,8.89v9.39a7.4,7.4,0,0,0,7.39,7.39H29.06a7.4,7.4,0,0,0,7.39-7.39V8.89A7.39,7.39,0,0,0,29.06,1.5Zm6.8,17.83A2.73,2.73,0,0,1,14.45,19a.82.82,0,0,1-.47-.72V9.11a.85.85,0,0,1,.49-.73,2.18,2.18,0,0,1,1.83-.17L25,12.92a1.48,1.48,0,0,1,.79,1.14.79.79,0,0,1-.41.67h0l-9,4.48A1.23,1.23,0,0,1,15.69,19.33ZM15,18.17a1.51,1.51,0,0,0,.84.14l8.83-4.37a.74.74,0,0,0-.19-.15L15.81,9.08a1.6,1.6,0,0,0-.83.15Z"/></g></g></svg>